# xmcd CD database file
#
# Track frame offsets:
#	150
#	11841
#	27507
#	37857
#	51886
#	65281
#	82254
#	91470
#	101920
#	112919
#	125992
#	137417
#
# Disc length: 2008 seconds
#
# Revision: 0
# Processed by: cddbd v1.5.2PL0 Copyright (c) Steve Scherf et al.
# Submitted via: CDex 1.70beta2
#
DISCID=a407d60c
DTITLE=Dale Watson - Help Your Lord
DYEAR=2008
DGENRE=Country
TTITLE0=Runnin' For Jesus
TTITLE1=The Lord's Callin' Me
TTITLE2=The Wheat And Weeds
TTITLE3=Hey There Sinner
TTITLE4=There's A Little Jonah In Us All
TTITLE5=Help Your Lord
TTITLE6=Without Jesus
TTITLE7=How Deep Is His Love
TTITLE8=I'm Gonna Take My Cross Up
TTITLE9=Alone, Alone, Alone
TTITLE10=Few Are Chosen
TTITLE11=Wayside, Rocks, Thorns Or Good Ground
EXTD=YEAR: 2008
EXTT0=
EXTT1=
EXTT2=
EXTT3=
EXTT4=
EXTT5=
EXTT6=
EXTT7=
EXTT8=
EXTT9=
EXTT10=
EXTT11=
PLAYORDER=
